<svg id="Layer_1" data-name="Layer 1" xmlns="http://www.w3.org/2000/svg" viewBox="0 0 512 512"><title>molecule-glyph</title><path d="M451.45,390.58A58.41,58.41,0,0,0,411.32,406L333.9,324.44a103.07,103.07,0,0,0,25.91-69c0-57.16-46.7-103.87-103.86-103.87a105.5,105.5,0,0,0-16.19,1.26s19-71.37,19-71.79A40.61,40.61,0,0,0,255.53,0c-22.26,0-39.81,18.7-39.81,41a40.73,40.73,0,0,0,23.09,36.47v.42l-22.25,81.92a107.71,107.71,0,0,0-36.15,24.77L104.54,103a60.59,60.59,0,1,0-43.47,18.29,63.48,63.48,0,0,0,26.12-6l80.56,86.31a103.92,103.92,0,0,0-15.36,54.76A105.46,105.46,0,0,0,173.29,319s-55.38,55.8-55.79,55.8a75,75,0,1,0,32.39,62.07A73.56,73.56,0,0,0,132.44,389l54.75-54.75a103.39,103.39,0,0,0,130.93,4.91s79.2,83.17,79.62,83.49a57.2,57.2,0,0,0-7.31,28.84,60.5,60.5,0,0,0,121,0c0-33.33-26.75-60.92-60-60.92Zm0,0" fill="#5b5b5f"/></svg>