<svg id="Layer_1" data-name="Layer 1" xmlns="http://www.w3.org/2000/svg" viewBox="0 0 512 512"><defs><style>.cls-1{fill:#141f38;}</style></defs><title>planets_style_2</title><path class="cls-1" d="M342.63,371q.22-1.15.41-2.32c.75-4.37,1.36-8.79,1.78-13.27.06-.66.1-1.32.15-2,.38-4.71.63-9.45.63-14.26,0-3.39-.12-6.75-.32-10.09-.06-1-.16-2.08-.24-3.13-.18-2.32-.39-4.64-.65-6.94q-.2-1.72-.43-3.42c-.31-2.28-.67-4.54-1.07-6.78-.18-1-.35-2-.54-3q-.86-4.38-1.93-8.67c-.07-.28-.12-.56-.19-.83-.82-3.2-1.74-6.35-2.73-9.47-.23-.73-.49-1.44-.73-2.16q-1.19-3.57-2.52-7.08c-.34-.88-.68-1.75-1-2.62q-1.35-3.38-2.85-6.68c-.34-.76-.67-1.52-1-2.27q-1.94-4.13-4.07-8.15l-.19-.38q-2.39-4.45-5-8.74l-.42-.65q-2.36-3.79-4.91-7.44c-.36-.52-.74-1-1.1-1.55q-2.36-3.32-4.88-6.52l-1-1.33a173.77,173.77,0,0,0-20.49-21.5l-.8-.7q-3.36-2.93-6.86-5.69l-1-.76A172.72,172.72,0,0,0,18.67,261.1l-.18.35A171.62,171.62,0,0,0,8.7,285.07c-.1.31-.21.62-.32.94Q6.48,291.87,5,297.92c-.13.54-.25,1.09-.38,1.63-.88,3.74-1.65,7.52-2.28,11.35-.06.39-.15.77-.21,1.16-.63,4-1.09,8-1.44,12-.08.89-.14,1.78-.2,2.68C.2,330.89,0,335,0,339.2c0,3.7.16,7.36.39,11,.07,1,.15,2.06.23,3.08q.35,4.29.9,8.51c.11.84.2,1.69.32,2.52q.77,5.32,1.86,10.53c.14.66.31,1.31.46,2q1,4.33,2.14,8.57c.25.91.51,1.83.78,2.73.93,3.15,1.93,6.27,3,9.35.08.24.15.48.24.71,1.22,3.36,2.56,6.66,4,9.92.31.7.63,1.4.95,2.09q1.82,4,3.84,8c.31.61.62,1.22.94,1.83,1.69,3.19,3.46,6.32,5.34,9.38l.15.23c1.81,2.94,3.73,5.81,5.71,8.64l1.16,1.63c2,2.77,4,5.49,6.19,8.13l.22.28q3.5,4.3,7.28,8.36l.7.74q3.43,3.65,7.07,7.1l.95.9a173.35,173.35,0,0,0,17,14l1,.69c2.91,2.07,5.87,4.06,8.91,6l.18.11q4.88,3,10,5.74h0A172.8,172.8,0,0,0,339.22,385.7c.17-.59.35-1.18.51-1.78C340.86,379.68,341.81,375.38,342.63,371Zm-22.85-23.79c-.05,1-.15,2-.23,3-.12,1.63-.24,3.26-.42,4.87,0,.35-.09.69-.13,1A58.05,58.05,0,0,0,249.09,399c-.07.25-.14.51-.2.77l-.08.31-.07.31c-.13.58-.29,1.35-.44,2.26a20.33,20.33,0,0,1-40-5.14c0-31.95,2.29-51.55,3.8-61l.47.09,7.76,1.51,4.31.83c2.5.48,5,1,7.51,1.46,1.7.34,3.41.66,5.11,1,2.92.55,5.84,1.1,8.72,1.77l1.93.47a61.07,61.07,0,0,0,15.36,2.29,42.86,42.86,0,0,0,4.66-.25,44.12,44.12,0,0,0-4.84-88H246l26.57-26.57c3.09,2.86,6.07,5.83,8.9,8.93l.29.32c1.39,1.53,2.74,3.1,4.06,4.69l.76.92c1.18,1.44,2.32,2.9,3.45,4.38l1.15,1.54q1.46,2,2.86,4,.76,1.11,1.51,2.24,1.17,1.77,2.29,3.57.93,1.49,1.81,3c.59,1,1.18,2,1.74,3,.71,1.27,1.39,2.56,2.06,3.86.42.8.84,1.61,1.24,2.42.78,1.57,1.52,3.16,2.24,4.76.26.58.53,1.16.79,1.74q1.22,2.81,2.32,5.67c.14.36.28.71.42,1.06q1.22,3.22,2.28,6.51l.15.44a146.86,146.86,0,0,1,6.25,29.6h0c.25,2.38.43,4.78.57,7.19,0,.17,0,.33,0,.49q.2,3.83.2,7.7C320,341.89,319.92,344.56,319.77,347.23Zm-258,73.14a42.5,42.5,0,0,1,16,31.11,147.92,147.92,0,0,1-40.17-54.15c-.19-.43-.38-.86-.56-1.29-.67-1.6-1.3-3.21-1.91-4.84-.31-.82-.62-1.64-.92-2.47-.5-1.4-1-2.8-1.43-4.22q-.53-1.63-1-3.27-.56-1.88-1.07-3.77c-.35-1.29-.67-2.59-1-3.9-.27-1.13-.54-2.27-.79-3.41-.31-1.46-.59-2.93-.86-4.4-.19-1-.39-2.09-.56-3.14-.26-1.6-.47-3.22-.67-4.83-.12-1-.26-1.9-.36-2.86-.19-1.8-.33-3.62-.45-5.44-.06-.8-.14-1.58-.18-2.38-.14-2.63-.22-5.26-.22-7.91,0-3,.12-6,.3-9,.06-.93.14-1.86.21-2.79q.25-3.19.65-6.35c.12-1,.24-2,.38-3q.57-4,1.35-7.88c.18-.9.39-1.79.59-2.68.46-2.11,1-4.2,1.52-6.29.32-1.21.67-2.41,1-3.61.49-1.65,1-3.29,1.55-4.92.39-1.18.77-2.36,1.2-3.53q1.35-3.71,2.89-7.35c.46-1.08,1-2.13,1.45-3.19.74-1.62,1.49-3.24,2.29-4.84.55-1.1,1.11-2.2,1.68-3.28q1.48-2.78,3.09-5.51c.34-.57.65-1.16,1-1.72A31.51,31.51,0,0,1,76,294.63a31.2,31.2,0,0,1-11.67,24.46l-.79.58-.87.69-.41.3c-.63.48-1.23,1-1.84,1.52s-1.13,1-1.72,1.53c-1.22,1.13-2.4,2.3-3.52,3.5S53,329.67,51.94,331s-2,2.64-3,4-1.82,2.81-2.64,4.27-1.61,3-2.31,4.48-1.38,3.12-2,4.72-1.13,3.24-1.59,4.89-.87,3.37-1.2,5-.6,3.46-.79,5.19-.32,3.54-.37,5.28c0,.6,0,1.21,0,1.82A63.86,63.86,0,0,0,61.8,420.37Zm111,66a146.26,146.26,0,0,1-70.93-18.27,68.14,68.14,0,0,0-24.06-67.74,38.24,38.24,0,0,1-14.13-29.68q0-.54,0-1.08,0-1.59.22-3.18t.47-3.1q.3-1.52.72-3t1-2.92q.53-1.43,1.17-2.81t1.39-2.69q.74-1.31,1.59-2.56T72,346.92q.94-1.17,2-2.27t2.13-2.11q.55-.51,1.12-1c.21-.18.4-.36.62-.53s.46-.33.68-.5.38-.32.57-.47.42-.28.62-.44a57,57,0,0,0-16.27-98.8,146.84,146.84,0,0,1,188.76-25.47l-35.47,35.47a18.68,18.68,0,0,0-1.91,1.91s-.58.58-.54.66a18.31,18.31,0,0,0-4,11.36,18.52,18.52,0,0,0,18.55,18.55h34.31a18.53,18.53,0,0,1,2,36.94,17.19,17.19,0,0,1-1.86.1c-3.89,0-7.73-1.22-11.48-2.09-4.83-1.13-9.75-2-14.62-2.93-4-.8-8-1.55-12-2.32l-15-2.91a23,23,0,0,0-3.81-.36,18.6,18.6,0,0,0-17.84,13.57s-.1.36-.25,1c0,.1-.05.2-.05.3-1.22,5.44-5.59,28.16-5.59,72.93a45.93,45.93,0,0,0,90.77,9.91,12.65,12.65,0,0,1,.25-1.47c.05-.2.1-.41.15-.56a32.32,32.32,0,0,1,40-24.14C295.69,442,239.35,486.4,172.8,486.4Zm19.08-235.84a22.91,22.91,0,0,0,2.68-4.87l.17-.5c2.69-7.83-.24-16.16-3.69-21.07a23.1,23.1,0,0,0-16.23-9.29c-6.56-.83-12.74.72-16.81,2a214.44,214.44,0,0,1-21.09,4.89c-4.14.82-8,1.58-11.32,2.39l-2,.5a20.16,20.16,0,0,0-14.44,19.19,19.41,19.41,0,0,0,1.08,6.42l1.26,3.36.38.34q2.19,4.67,4.68,9.24a117.37,117.37,0,0,0,8.15,13.08,65.44,65.44,0,0,0,5.24,6.4c.76.81,1.57,1.57,2.38,2.32l.53.49a20.36,20.36,0,0,0,9.21,5.15,17.77,17.77,0,0,0,4,.45,21.51,21.51,0,0,0,8.29-1.77c6.8-2.84,11.71-7.7,15-10.92,8-7.94,14.56-16.74,20.51-25Zm-40.56,9.59c-1.36,1.35-2.65,2.59-3.88,3.59-.7-.84-1.37-1.71-2-2.6a91.74,91.74,0,0,1-6.36-10.24q-.87-1.59-1.69-3.21l4.46-.88a235.66,235.66,0,0,0,23.63-5.53c.39-.12,1.08-.32,1.9-.53A160.24,160.24,0,0,1,151.32,260.14ZM409.6,204.8A102.4,102.4,0,1,0,307.2,102.4,102.4,102.4,0,0,0,409.6,204.8Zm0-179.2a76.86,76.86,0,0,1,75.64,64H460.8a12.8,12.8,0,0,0,0,25.6h24.44a76,76,0,0,1-3.32,12.8H435.2a12.8,12.8,0,0,0,0,25.6h31.48A76.61,76.61,0,0,1,334,115.2H358.4a12.8,12.8,0,1,0,0-25.6H334a76,76,0,0,1,3.32-12.8H384a12.8,12.8,0,1,0,0-25.6H352.52A76.54,76.54,0,0,1,409.6,25.6ZM38.4,76.8A38.4,38.4,0,1,0,0,38.4,38.41,38.41,0,0,0,38.4,76.8Zm0-51.2A12.8,12.8,0,1,1,25.6,38.4,12.81,12.81,0,0,1,38.4,25.6ZM460.8,256a38.4,38.4,0,1,0,38.4,38.4A38.41,38.41,0,0,0,460.8,256Zm0,51.2a12.8,12.8,0,1,1,12.8-12.8A12.81,12.81,0,0,1,460.8,307.2ZM179.2,83.2a19.2,19.2,0,1,1,19.2,19.2A19.2,19.2,0,0,1,179.2,83.2ZM422.4,428.8a19.2,19.2,0,1,1-19.2-19.2A19.2,19.2,0,0,1,422.4,428.8Z"/></svg>